<?xml version="1.0" encoding="utf-8"?>
<!-- Generator: Adobe Illustrator 24.0.1, SVG Export Plug-In . SVG Version: 6.00 Build 0)  -->
<svg version="1.1" id="Layer_1" xmlns="http://www.w3.org/2000/svg" xmlns:xlink="http://www.w3.org/1999/xlink" x="0px" y="0px"
	 viewBox="0 0 170.1 88" style="enable-background:new 0 0 170.1 88;" xml:space="preserve">
<style type="text/css">
	.st0{fill:#DDDDDD;stroke:#000000;stroke-width:3;stroke-linecap:round;stroke-linejoin:round;}
	.st1{opacity:0.2;}
	.st2{stroke:#000000;stroke-width:3;stroke-linecap:round;stroke-linejoin:round;}
	.st3{fill:#666666;stroke:#00022D;stroke-width:3;stroke-linecap:round;stroke-linejoin:round;}
</style>
<title>Asset 1</title>
<g>
	<g id="Layer_2_1_">
		<g id="Layer_6">
			<path class="st0" d="M154.2,13.9c-9.6-8.2-21.6-12.4-36-12.4c-5,0-10,0.5-14.9,1.5c-6,1.3-12,3.1-17.8,5.3l0,0
				C73.4,3.8,62.4,1.5,52.5,1.5C38.1,1.5,26,5.6,16.2,13.9S1.5,32.3,1.5,44.3c0,7.6,2.2,14.9,6.4,21.2c4.3,6.6,10.4,11.9,17.4,15.4
				c7.3,3.7,16.3,5.6,26.8,5.6c12.1,0,22.9-2.1,32.4-6.3c10.6,4.1,21.8,6.2,33.1,6.3c15.4,0,27.8-4,37-12s13.8-17.9,13.9-29.7
				C168.6,32.4,163.8,22.1,154.2,13.9z"/>
			<g class="st1">
				<path class="st2" d="M109.6,47.3H88.7v23.5c7.3,2.9,15,4.4,22.8,4.4c10.3,0,18.5-2.7,24.7-8c5.9-4.9,9.3-12.1,9.2-19.8
					c0.1-8-3.4-15.6-9.6-20.6c-6.4-5.5-14.4-8.2-24-8.2c-3.4,0-6.7,0.3-10,1c-4,1-8,2.2-11.9,3.7v8.1c6.8-3.7,14.4-5.6,22.1-5.7
					c6.3-0.2,12.4,2,17.2,6.2c4.5,3.7,7.1,9.3,7,15.2c0.2,5.9-2.4,11.6-7,15.4c-4.7,4-10.7,6-18,6c-4.3-0.1-8.6-0.9-12.8-2.2
					l-0.8-0.2V54.4h12L109.6,47.3z"/>
				<path class="st2" d="M84.4,61.7v8.7c-7.2,3.3-15,4.9-22.9,4.8c-7,0-13-1.2-17.9-3.7c-4.7-2.3-8.8-5.9-11.7-10.3
					c-2.8-4.2-4.3-9.1-4.3-14.2c0-8,3.3-14.8,9.8-20.3s14.6-8.2,24.2-8.2c6.6,0,13.9,1.5,22,4.6v8.5c-6.6-3.5-14-5.4-21.5-5.6
					c-7.2,0-13.2,2-18,6c-4.6,3.6-7.2,9.2-7.1,15c-0.1,5.8,2.5,11.4,7,15c4.7,3.9,10.7,5.9,18,5.9C69.9,67.8,77.7,65.7,84.4,61.7z"
					/>
			</g>
			<path class="st3" d="M108.2,44.5H87.3v23.5c7.3,2.9,15,4.4,22.8,4.4c10.3,0,18.5-2.7,24.7-8s9.2-11.9,9.2-19.8
				c0.1-8-3.4-15.6-9.6-20.6c-6.4-5.5-14.4-8.2-24-8.2c-3.4,0-6.7,0.3-10,1c-4.1,1-8,2.2-11.9,3.7v8.1c6.8-3.7,14.4-5.6,22.1-5.7
				c6.3-0.2,12.4,2,17.2,6.2c4.5,3.7,7.1,9.3,7,15.2c0.2,5.9-2.4,11.6-7,15.4c-4.7,4-10.7,6-18,6c-4.3-0.1-8.6-0.9-12.8-2.2
				l-0.8-0.2V51.5h12L108.2,44.5z"/>
			<path class="st3" d="M83,58.9v8.7c-7.2,3.3-15,4.9-22.9,4.8c-7,0-13-1.2-17.9-3.7c-4.7-2.3-8.7-5.9-11.6-10.3
				c-2.8-4.2-4.3-9.1-4.3-14.1c0-8.1,3.3-14.8,9.8-20.3s14.6-8.2,24.2-8.2c6.6,0,13.9,1.5,22,4.6v8.5c-6.6-3.5-14-5.4-21.5-5.6
				c-7.2,0-13.2,2-18,6c-4.6,3.6-7.2,9.2-7.2,15c-0.1,5.8,2.5,11.4,7,15c4.7,3.9,10.7,5.9,18,5.9C68.5,65,76.2,62.9,83,58.9z"/>
		</g>
	</g>
</g>
</svg>
