<?xml version="1.0" encoding="utf-8"?>
<!-- Generator: Adobe Illustrator 24.0.1, SVG Export Plug-In . SVG Version: 6.00 Build 0)  -->
<svg version="1.1" id="Layer_1" xmlns="http://www.w3.org/2000/svg" xmlns:xlink="http://www.w3.org/1999/xlink" x="0px" y="0px"
	 viewBox="0 0 264 264" style="enable-background:new 0 0 264 264;" xml:space="preserve">
<style type="text/css">
	.st0{fill:none;stroke:#000000;stroke-width:2;}
	.st1{fill:#FFFFFF;}
	.st2{fill:none;stroke:#000000;stroke-width:2;stroke-linecap:round;}
	.st3{fill:#F5F5F5;}
	.st4{stroke:#000000;stroke-miterlimit:10;}
	.st5{fill:#F5F5F5;stroke:#000000;stroke-width:2;}
	.st6{fill:none;stroke:#000000;stroke-width:3;stroke-linecap:round;}
	.st7{fill:none;stroke:#000000;stroke-width:5;stroke-linecap:round;}
</style>
<g id="Group_64" transform="translate(3.5 -250.505)">
	<g id="Hair_Back" transform="translate(-3.5 250.505)">
		<circle cx="132" cy="132" r="132"/>
		<circle class="st0" cx="132" cy="132" r="131"/>
	</g>
	<g id="Right_Ear" transform="translate(-2.509 340.156)">
		<g id="Ellipse_43" transform="translate(0.009 0.349)">
			<ellipse class="st1" cx="18.5" cy="62" rx="18.5" ry="62"/>
			<ellipse class="st0" cx="18.5" cy="62" rx="17.5" ry="61"/>
		</g>
	</g>
	<g id="Left_Ear" transform="translate(223.847 340.156)">
		<g id="Ellipse_44" transform="translate(0 0)">
			<ellipse class="st1" cx="18.3" cy="62.4" rx="18.3" ry="62.4"/>
			<ellipse class="st0" cx="18.3" cy="62.4" rx="17.3" ry="61.4"/>
		</g>
	</g>
	<g id="Hair" transform="translate(5.5 267.505)">
		<circle cx="123.5" cy="123.5" r="123.5"/>
		<circle class="st0" cx="123.5" cy="123.5" r="122.5"/>
	</g>
	<g id="Ellipse_13" transform="translate(9.873 274.775)">
		<circle class="st1" cx="118.9" cy="118.9" r="118.9"/>
		<circle class="st2" cx="118.9" cy="118.9" r="117.9"/>
	</g>
	<g id="Left_Eye" transform="translate(160.943 362.94)">
		<g id="Ellipse_17" transform="translate(-0.443 -0.435)">
			<circle cx="7.5" cy="7.5" r="7.5"/>
			<circle class="st0" cx="7.5" cy="7.5" r="6.5"/>
		</g>
		<g id="Ellipse_47" transform="translate(1.557 1.565)">
			<circle class="st1" cx="3.5" cy="3.5" r="3.5"/>
			<circle class="st0" cx="3.5" cy="3.5" r="2.5"/>
		</g>
	</g>
	<g id="Right_Eye" transform="translate(81.693 362.94)">
		<g id="Ellipse_16" transform="translate(-0.193 -0.435)">
			<circle cx="7.5" cy="7.5" r="7.5"/>
			<circle class="st0" cx="7.5" cy="7.5" r="6.5"/>
		</g>
		<g id="Ellipse_46" transform="translate(1.807 1.565)">
			<circle class="st1" cx="3.5" cy="3.5" r="3.5"/>
			<circle class="st0" cx="3.5" cy="3.5" r="2.5"/>
		</g>
	</g>
	<g id="Cheek_Right" transform="translate(24.5 375.505)">
		<circle class="st3" cx="43.5" cy="43.5" r="43.5"/>
		<circle class="st0" cx="43.5" cy="43.5" r="42.5"/>
	</g>
	<g id="Cheek_Left" transform="translate(146.5 375.505)">
		<circle class="st3" cx="43.5" cy="43.5" r="43.5"/>
		<circle class="st0" cx="43.5" cy="43.5" r="42.5"/>
	</g>
	<g id="Nose" transform="translate(110.916 403.555)">
		<g id="Nostrils_Outer" transform="translate(0 2.971)">
			<path d="M24.6,20.8c5.2,0,9.4-4.2,9.4-9.4S29.7,2,24.6,2c-1.9,0-3.7,0.6-5.3,1.6l-1.1,0.8l-1.1-0.8c-1.7-1-3.5-1.6-5.4-1.6
				c-5.2,0-9.4,4.2-9.4,9.4s4.2,9.4,9.4,9.4c1.9,0,3.7-0.6,5.3-1.6l1.1-0.8l1.1,0.8C20.8,20.2,22.7,20.8,24.6,20.8 M24.6,22.8
				c-2.4,0-4.6-0.7-6.4-2c-1.8,1.3-4,2-6.4,2c-6.4,0-11.5-5.1-11.5-11.4S5.4,0,11.7,0c2.4,0,4.6,0.7,6.4,2c1.8-1.3,4-2,6.4-2
				c6.3,0,11.4,5.1,11.4,11.4S30.9,22.8,24.6,22.8z"/>
		</g>
		<g id="Nostrils" transform="translate(7.925 16.841)">
			<g id="Ellipse_29">
				<circle class="st4" cx="3.8" cy="3.5" r="3"/>
			</g>
			<g id="Ellipse_30" transform="translate(12.878)">
				<circle class="st4" cx="3.8" cy="3.5" r="3"/>
			</g>
		</g>
		<g id="Nose_Front" transform="translate(6.584 -0.051)">
			<circle class="st5" cx="11.6" cy="12.5" r="10.5"/>
		</g>
	</g>
	<g id="Lips" transform="translate(87.142 465.132)">
		<path id="Path_12" class="st6" d="M83.7,0C83.6,8.5,0,9,0,0"/>
		<path id="Path_13" class="st2" d="M78.8,13.2c0,3.9-74.3,4.2-74.3,0"/>
	</g>
	<g id="Front_Hair" transform="translate(6.919 267.841)">
		<g id="Top_Hair" transform="translate(67.168)">
			<path d="M54.2,35.7c-5.2,0-10.4-0.6-15.4-1.6c-4.9-1.1-9.7-2.6-14.3-4.7c-4.5-2-8.8-4.5-12.8-7.4c-3.6-2.6-7-5.6-10-8.8
				c7.9-3.8,16.2-6.7,24.7-8.8C35.6,2.1,45.1,1,54.7,1c9.4,0,18.8,1.1,27.9,3.2C91,6.2,99.2,9,107,12.7c-3.1,3.3-6.5,6.3-10.1,8.9
				c-4,2.9-8.3,5.5-12.9,7.5c-4.6,2.1-9.4,3.7-14.4,4.8C64.6,35.1,59.4,35.7,54.2,35.7z"/>
			<path d="M54.7,2c-9.5,0-18.9,1.1-28.1,3.3c-8,1.9-15.8,4.6-23.3,8.1c2.8,2.8,5.8,5.4,8.9,7.7c3.9,2.9,8.2,5.3,12.6,7.3
				c4.5,2,9.2,3.6,14.1,4.6c5,1.1,10.1,1.6,15.2,1.6c5.2,0,10.3-0.6,15.3-1.6c4.9-1.1,9.6-2.7,14.2-4.7c4.5-2,8.7-4.5,12.7-7.4
				c3.2-2.3,6.2-5,9-7.8c-7.4-3.4-15.1-6-23-7.9C73.3,3.1,64,2,54.7,2 M54.7,0c19.4,0,37.7,4.5,54,12.4
				C95.2,27.3,75.8,36.7,54.2,36.7c-21.5,0-40.8-9.2-54.2-23.9C16.5,4.6,35,0,54.7,0z"/>
		</g>
		<g id="Right" transform="translate(0 31.702)">
			<path d="M33.1,71.3H1.2C3.1,57.8,7,44.9,12.7,32.9C18.3,21,25.5,10.3,34.2,1.2c0.7,0.2,1.4,0.6,1.9,1.2c0.6,0.7,1,1.6,1,2.6v62.3
				C37.1,69.5,35.3,71.3,33.1,71.3z"/>
			<path d="M33.1,70.3c1.7,0,3-1.3,3-3V5c0-0.7-0.3-1.4-0.7-2c-0.2-0.3-0.5-0.5-0.9-0.7c-8.4,9-15.4,19.4-20.9,30.9
				c-5.5,11.6-9.3,24-11.3,37h30.8 M33.1,72.3H0C3.9,43.8,16.2,18.5,33.9,0.1c2.4,0.4,4.2,2.4,4.2,4.9v62.3
				C38.1,70.1,35.8,72.3,33.1,72.3z"/>
		</g>
		<g id="Left" transform="translate(205.592 31.702)">
			<path d="M36.9,71.3H5c-2.2,0-4-1.8-4-4V5c0-1,0.3-1.9,1-2.6c0.5-0.6,1.2-1,1.9-1.2c8.7,9.2,15.9,19.8,21.5,31.7
				C31.1,44.9,35,57.8,36.9,71.3z"/>
			<path d="M35.8,70.3c-2-13-5.8-25.4-11.3-37S12,11.3,3.6,2.3C3.3,2.5,3,2.8,2.7,3C2.3,3.6,2,4.3,2,5v62.3c0,1.7,1.3,3,3,3H35.8
				 M38.1,72.3H5c-2.8,0-5-2.2-5-5V5c0-2.5,1.8-4.6,4.2-4.9C21.9,18.5,34.2,43.8,38.1,72.3z"/>
		</g>
	</g>
	<path id="Path_14" class="st7" d="M109.9,369.7c0-39.8-54.4-38.9-54.4,0"/>
	<path id="Path_16" class="st7" d="M147.5,369.7c0-39.8,54.4-38.9,54.4,0"/>
</g>
</svg>
