<?xml version="1.0" encoding="utf-8"?>
<!-- Generator: Adobe Illustrator 23.1.1, SVG Export Plug-In . SVG Version: 6.00 Build 0)  -->
<svg version="1.1" id="Layer_1" xmlns="http://www.w3.org/2000/svg" xmlns:xlink="http://www.w3.org/1999/xlink" x="0px" y="0px"
	 viewBox="0 0 226.8 226.8" style="enable-background:new 0 0 226.8 226.8;" xml:space="preserve">
<style type="text/css">
	.st0{fill:#777777;stroke:#000000;stroke-width:2;stroke-miterlimit:10;}
	.st1{fill:#EEEEEE;stroke:#000000;stroke-width:2;stroke-linecap:round;stroke-linejoin:round;stroke-miterlimit:10;}
	.st2{fill:none;stroke:#000000;stroke-width:2;stroke-linecap:round;stroke-linejoin:round;stroke-miterlimit:10;}
	.st3{fill:none;stroke:#000000;stroke-width:2;stroke-linecap:round;stroke-miterlimit:10;}
	.st4{fill:#FFFFFF;stroke:#000000;stroke-width:2.5;stroke-linecap:round;stroke-linejoin:round;stroke-miterlimit:10;}
	.st5{fill:#777777;stroke:#000000;stroke-linecap:round;stroke-miterlimit:10;}
	.st6{fill:#EEEEEE;stroke:#000000;stroke-width:2.5;stroke-linecap:round;stroke-linejoin:round;stroke-miterlimit:10;}
	.st7{fill:none;stroke:#777777;stroke-width:3;stroke-linecap:round;stroke-linejoin:round;stroke-miterlimit:10;}
	.st8{fill:#EEEEEE;stroke:#000000;stroke-width:2;stroke-miterlimit:10;}
	.st9{fill:#777777;}
	.st10{fill:none;stroke:#000000;stroke-linecap:round;stroke-linejoin:round;stroke-miterlimit:10;}
	.st11{fill:#FFEFAE;stroke:#000000;stroke-width:2;stroke-linecap:round;stroke-linejoin:round;stroke-miterlimit:10;}
	.st12{fill:#CECECE;stroke:#000000;stroke-linecap:round;stroke-linejoin:round;stroke-miterlimit:10;}
	.st13{fill:#FFFFFF;stroke:#000000;stroke-linecap:round;stroke-linejoin:round;stroke-miterlimit:10;}
</style>
<g id="Head_1_">
	<ellipse id="Hair" class="st0" cx="112.9" cy="96.2" rx="64.6" ry="83"/>
	<ellipse id="Head" class="st1" cx="112.9" cy="103.9" rx="62.8" ry="80.7"/>
	<path id="Nose" class="st2" d="M105.1,112.3c7.6,7.6,7.9,7.8,15.7,0"/>
	<path id="Mouth" class="st3" d="M86,134.2c29.2,6,29.2,6,53.7,0"/>
	<g id="Eye_Right">
		<path class="st4" d="M105.1,80.5c0,8.7-7,15.7-15.7,15.7s-15.7-7-15.7-15.7C73.7,80.5,78.2,76.1,105.1,80.5z"/>
		<circle class="st5" cx="89.4" cy="87" r="6.7"/>
		<path class="st6" d="M105.1,80.5c-26.8-4.4-31.4,0-31.4,0c0-8.7,7-15.7,15.7-15.7S105.1,71.8,105.1,80.5z"/>
		<path class="st7" d="M108,61.8c-9.1-9.1-25.5-8.8-34.3,0"/>
	</g>
	<g id="Eye_Left">
		<path class="st4" d="M152.1,80.5c0,8.7-7,15.7-15.7,15.7s-15.7-7-15.7-15.7C132.9,77.4,144.8,77.7,152.1,80.5z"/>
		<circle class="st5" cx="136.4" cy="87" r="6.7"/>
		<path class="st6" d="M152.1,80.5c-7.3-2.8-19.2-3.2-31.4,0c0-8.7,7-15.7,15.7-15.7S152.1,71.8,152.1,80.5z"/>
		<path class="st7" d="M153.6,61.8c-9.1-9.1-25.5-8.8-34.3,0"/>
	</g>
	<ellipse id="Ear_Left" class="st8" cx="182" cy="100.5" rx="6.7" ry="20"/>
	<ellipse id="Ear_Right" class="st8" cx="43.4" cy="100.5" rx="6.7" ry="20"/>
	<g id="Hair_1_">
		<path class="st9" d="M47.3,104.4c0-47.6,29.4-86.2,65.6-86.2s65.6,38.6,65.6,86.2c0,7.4-0.7,14.6-2.1,21.5c2.6-9.4,4-19.5,4-30
			c0-49-30.2-88.7-67.5-88.7S45.4,46.9,45.4,95.9c0,10.5,1.4,20.6,4,30C48,119,47.3,111.8,47.3,104.4z"/>
		<path class="st9" d="M48.7,106.8c0-46.6,28.7-84.3,64.2-84.3c35.4,0,64.2,37.8,64.2,84.3c0,7.2-0.7,14.3-2,21
			c2.5-9.2,3.9-19.1,3.9-29.4c0-47.9-29.6-86.8-66.1-86.8S46.8,50.5,46.8,98.4c0,10.3,1.4,20.2,3.9,29.4
			C49.4,121.1,48.7,114.1,48.7,106.8z"/>
		<path class="st9" d="M51.8,109.2c0-44.7,27.6-80.9,61.6-80.9S175,64.5,175,109.2c0,7-0.7,13.7-1.9,20.1c2.4-8.8,3.7-18.3,3.7-28.2
			c0-46-28.4-83.3-63.4-83.3S50,55.1,50,101.1c0,9.9,1.3,19.4,3.7,28.2C52.5,122.9,51.8,116.2,51.8,109.2z"/>
	</g>
	<g id="Mouth_1_">
		<path class="st10" d="M86.8,142.6c22.2,4.1,29.1,4.5,52.4,0"/>
		<path class="st10" d="M108,131.1c4.4,2.3,4.8,2.3,7.9,0"/>
		<path class="st11" d="M141.3,132c0.7,4.9,3,6,4.7,6.8"/>
		<path class="st11" d="M84.2,132c-1.2,4.6-1.5,4.8-4.2,6.8"/>
	</g>
</g>
<g id="Computer">
	<path class="st12" d="M214.5,219.6H12.3c-3.1,0-5.7-2.5-5.7-5.7V101.8c0-3.1,2.5-5.7,5.7-5.7h202.2c3.1,0,5.7,2.5,5.7,5.7v112.1
		C220.1,217.1,217.6,219.6,214.5,219.6z"/>
	<circle class="st13" cx="112.8" cy="158.1" r="10.5"/>
</g>
<polygon class="st13" points="105.7,146.3 118.3,146.3 118.3,141.2 "/>
</svg>
