<?xml version="1.0" encoding="utf-8"?>
<!-- Generator: Adobe Illustrator 23.1.1, SVG Export Plug-In . SVG Version: 6.00 Build 0)  -->
<svg version="1.1" id="Layer_1" xmlns="http://www.w3.org/2000/svg" xmlns:xlink="http://www.w3.org/1999/xlink" x="0px" y="0px"
	 viewBox="0 0 170.1 198.4" style="enable-background:new 0 0 170.1 198.4;" xml:space="preserve">
<style type="text/css">
	.st0{fill:#777777;stroke:#000000;stroke-width:2;stroke-miterlimit:10;}
	.st1{fill:#EEEEEE;stroke:#000000;stroke-width:2;stroke-linecap:round;stroke-linejoin:round;stroke-miterlimit:10;}
	.st2{fill:none;stroke:#000000;stroke-width:2;stroke-linecap:round;stroke-linejoin:round;stroke-miterlimit:10;}
	.st3{fill:none;stroke:#000000;stroke-width:2;stroke-linecap:round;stroke-miterlimit:10;}
	.st4{fill:#FFFFFF;stroke:#000000;stroke-width:2.5;stroke-linecap:round;stroke-linejoin:round;stroke-miterlimit:10;}
	.st5{fill:#777777;stroke:#000000;stroke-linecap:round;stroke-miterlimit:10;}
	.st6{fill:#EEEEEE;stroke:#000000;stroke-width:2.5;stroke-linecap:round;stroke-linejoin:round;stroke-miterlimit:10;}
	.st7{fill:none;stroke:#777777;stroke-width:3;stroke-linecap:round;stroke-linejoin:round;stroke-miterlimit:10;}
	.st8{fill:#EEEEEE;stroke:#000000;stroke-width:2;stroke-miterlimit:10;}
	.st9{fill:#777777;}
	.st10{fill:none;stroke:#000000;stroke-linecap:round;stroke-linejoin:round;stroke-miterlimit:10;}
	.st11{fill:#FFEFAE;stroke:#000000;stroke-width:2;stroke-linecap:round;stroke-linejoin:round;stroke-miterlimit:10;}
</style>
<ellipse id="Hair" class="st0" cx="86.4" cy="97.6" rx="64.6" ry="83"/>
<ellipse id="Head" class="st1" cx="86.4" cy="105.3" rx="62.8" ry="80.7"/>
<path id="Nose" class="st2" d="M78.6,113.7c7.6,7.6,7.9,7.8,15.7,0"/>
<path id="Mouth" class="st3" d="M59.5,135.6c29.2,6,29.2,6,53.7,0"/>
<g id="Eye_Right">
	<path class="st4" d="M78.6,81.9c0,8.7-7,15.7-15.7,15.7s-15.7-7-15.7-15.7C47.2,81.9,51.7,77.5,78.6,81.9z"/>
	<circle class="st5" cx="62.9" cy="85.4" r="6.7"/>
	<path class="st6" d="M78.6,81.9c-26.8-4.4-31.4,0-31.4,0c0-8.7,7-15.7,15.7-15.7S78.6,73.2,78.6,81.9z"/>
	<path class="st7" d="M81.5,63.2c-9.1-9.1-25.5-8.8-34.3,0"/>
</g>
<g id="Eye_Left">
	<path class="st4" d="M125.6,81.9c0,8.7-7,15.7-15.7,15.7s-15.7-7-15.7-15.7C106.4,78.8,118.3,79.1,125.6,81.9z"/>
	<circle class="st5" cx="109.9" cy="85.4" r="6.7"/>
	<path class="st6" d="M125.6,81.9c-7.3-2.8-19.2-3.2-31.4,0c0-8.7,7-15.7,15.7-15.7S125.6,73.2,125.6,81.9z"/>
	<path class="st7" d="M127.1,63.2c-9.1-9.1-25.5-8.8-34.3,0"/>
</g>
<ellipse id="Ear_Left" class="st8" cx="155.5" cy="101.9" rx="6.7" ry="20"/>
<ellipse id="Ear_Right" class="st8" cx="16.9" cy="101.9" rx="6.7" ry="20"/>
<g id="Hair_1_">
	<path class="st9" d="M20.8,105.8c0-47.6,29.4-86.2,65.6-86.2S152,58.2,152,105.8c0,7.4-0.7,14.6-2.1,21.5c2.6-9.4,4-19.5,4-30
		c0-49-30.2-88.7-67.5-88.7S18.9,48.3,18.9,97.3c0,10.5,1.4,20.6,4,30C21.5,120.4,20.8,113.2,20.8,105.8z"/>
	<path class="st9" d="M22.2,108.2c0-46.6,28.7-84.3,64.2-84.3c35.4,0,64.2,37.8,64.2,84.3c0,7.2-0.7,14.3-2,21
		c2.5-9.2,3.9-19.1,3.9-29.4c0-47.9-29.6-86.8-66.1-86.8S20.3,51.9,20.3,99.8c0,10.3,1.4,20.2,3.9,29.4
		C22.9,122.5,22.2,115.5,22.2,108.2z"/>
	<path class="st9" d="M25.3,110.6c0-44.7,27.6-80.9,61.6-80.9s61.6,36.2,61.6,80.9c0,7-0.7,13.7-1.9,20.1c2.4-8.8,3.7-18.3,3.7-28.2
		c0-46-28.4-83.3-63.4-83.3s-63.4,37.3-63.4,83.3c0,9.9,1.3,19.4,3.7,28.2C26,124.3,25.3,117.6,25.3,110.6z"/>
</g>
<g id="Mouth_1_">
	<path class="st10" d="M60.3,144c22.2,4.1,29.1,4.5,52.4,0"/>
	<path class="st10" d="M81.5,132.5c4.4,2.3,4.8,2.3,7.9,0"/>
	<path class="st11" d="M114.8,133.4c0.7,4.9,3,6,4.7,6.8"/>
	<path class="st11" d="M57.7,133.4c-1.2,4.6-1.5,4.8-4.2,6.8"/>
</g>
</svg>
